<svg xmlns="http://www.w3.org/2000/svg" width="25" height="24" viewBox="0 0 25 24">
  <g fill="#443AFF" transform="translate(.945)">
    <path d="M23 17.63L16.46 10 7.54 10 1 17.63 1 24 23 24 23 17.63zM21 22L3 22 3 18.37 8.46 12 15.54 12 21 18.37 21 22zM20 0L4 0C1.794 0 0 1.794 0 4L0 9 8 9 8 6 16 6 16 9 24 9 24 4C24 1.794 22.206 0 20 0zM22 7L18 7 18 4 6 4 6 7 2 7 2 4C2 2.897 2.897 2 4 2L20 2C21.103 2 22 2.897 22 4L22 7z"/>
    <path d="M12,14 C10.346,14 9,15.346 9,17 C9,18.654 10.346,20 12,20 C13.654,20 15,18.654 15,17 C15,15.346 13.654,14 12,14 Z M12,18 C11.449,18 11,17.551 11,17 C11,16.449 11.449,16 12,16 C12.551,16 13,16.449 13,17 C13,17.551 12.551,18 12,18 Z"/>
  </g>
</svg>
