<svg xmlns="http://www.w3.org/2000/svg" width="32" height="26" viewBox="0 0 32 26">
  <path fill="#FFFFFF" d="M32,6.07560667 C30.8226533,6.59775333 29.5574133,6.95072667 28.22928,7.10938 C29.5848267,6.2969 30.6258133,5.01027333 31.11596,3.47719333 C29.8475067,4.22956667 28.4424667,4.77594 26.947,5.07039333 C25.7494267,3.79439333 24.0431733,2.99711333 22.15496,2.99711333 C18.5290533,2.99711333 15.5895867,5.93660667 15.5895867,9.56215333 C15.5895867,10.0767533 15.6476533,10.5777533 15.75956,11.0583 C10.3032933,10.7845267 5.46576,8.17082 2.22770667,4.19880667 C1.66257333,5.16847333 1.33886667,6.29620667 1.33886667,7.49938 C1.33886667,9.77703333 2.49792,11.78654 4.25949333,12.9638867 C3.18330667,12.9298333 2.171,12.63446 1.28582667,12.1427133 C1.28537333,12.1701533 1.28526667,12.19758 1.28526667,12.2252467 C1.28526667,15.4062067 3.54828,18.0597 6.55166667,18.66278 C6.00072,18.81274 5.42073333,18.8929933 4.822,18.8929933 C4.39894667,18.8929933 3.98768,18.8518333 3.5868,18.77526 C4.42226667,21.3834867 6.8468,23.2816467 9.71965333,23.3346867 C7.47274667,25.09546 4.64196,26.1450067 1.56610667,26.1450067 C1.03617333,26.1450067 0.513573333,26.1139133 0,26.05334 C2.90542667,27.91606 6.35632,29.0028867 10.0638267,29.0028867 C22.1396533,29.0028867 28.7430933,18.9990733 28.7430933,10.3234467 C28.7430933,10.03882 28.7367067,9.75568667 28.72412,9.47415333 C30.0067333,8.54848667 31.1198533,7.39216667 32,6.07560667 Z" transform="translate(0 -3)"/>
</svg>
