<svg xmlns="http://www.w3.org/2000/svg" width="176" height="52" viewBox="0 0 176 52">
  <g fill="none" fill-rule="evenodd">
    <path fill="#443AFF" d="M24.5174371,0 L13.6810164,10.8156162 L0,4.83443086 L0,52 L16.0449151,52 L16.0449151,49.5277516 C16.0449151,46.5268109 17.6660896,43.7271872 20.2750495,42.2201317 C20.523881,42.0761994 20.7811953,41.9492004 21.0413373,41.8316087 L15.813992,39.3443086 C13.4849674,41.3292568 11.8939543,44.0583255 11.3246581,47.0555033 L4.95306519,47.0555033 L4.95306519,12.2982126 L14.9251736,16.5550329 L24.5108392,6.98212606 L34.0936773,16.5465663 L44.0469348,12.2982126 L44.0469348,47.0555033 L37.6753419,47.0555033 C36.9561814,43.2699906 34.6130186,39.9087488 31.2057245,37.9407338 C30.9361571,37.7855127 30.6665897,37.6406397 30.3923096,37.5070555 C30.3989074,37.5023518 22.416508,34.0103481 22.416508,34.0103481 C20.5248235,33.1825024 19.3032874,31.3170273 19.3032874,29.2568203 C19.3032874,26.0639699 22.210091,23.5352775 25.5212457,24.1683913 C27.3771135,24.523048 28.9398503,25.9350894 29.475215,27.7441204 C30.1038914,29.8682973 29.3498567,31.9962371 27.7871199,33.2718721 L32.5912632,35.3706491 C33.8995133,33.6453434 34.6497778,31.5108184 34.6497778,29.2568203 C34.6497778,23.1317027 29.1754862,18.2587018 22.8529055,19.2568203 C18.9083617,19.8795861 15.6207706,22.8852305 14.6593764,26.7544685 C14.0570912,29.1768579 14.3605901,31.5851364 15.3493181,33.639699 C16.3389886,35.6970837 18.1119126,37.2718721 20.1732549,38.2568203 C21.91696,39.0903104 24.4929309,40.3207902 24.4929309,40.3207902 L24.5004713,40.3170273 L27.7362225,41.7309501 C28.181103,41.9181562 28.5326716,42.0997178 28.9332525,42.3443086 C31.4366476,43.869238 32.9550849,46.6001881 32.9550849,49.5277516 L32.9550849,52 L49,52 L49,4.83443086 L35.3406621,10.8024459 L24.5174371,0 Z"/>
    <path fill="#000000" d="M80.404,31.208 C80.404,34.824 78.996,37 75.732,37 C72.5,37 71.06,34.472 71.06,31.272 L71.06,18.568 L66.324,18.568 L66.324,31.048 C66.324,37.896 69.972,41.352 75.732,41.352 C81.492,41.352 85.14,37.896 85.14,31.048 L85.14,18.568 L80.404,18.568 L80.404,31.208 Z M92.4241909,18.568 L86.8561909,18.568 L93.8321909,29.512 L86.4401909,41 L91.9761909,41 L96.6481909,33.448 L101.352191,41 L106.888191,41 L99.4961909,29.512 L106.472191,18.568 L100.904191,18.568 L96.6481909,25.672 L92.4241909,18.568 Z M114.680573,41 L119.448573,41 L119.448573,34.632 L121.624573,31.848 L127.608573,41 L133.080573,41 L124.664573,28.168 L132.344573,18.568 L126.680573,18.568 L119.448573,27.72 L119.448573,18.568 L114.680573,18.568 L114.680573,41 Z M134.572764,41 L139.148764,41 L139.148764,25.32 L134.572764,25.32 L134.572764,41 Z M134.220764,20.872 C134.220764,22.312 135.372764,23.496 136.844764,23.496 C138.316764,23.496 139.500764,22.312 139.500764,20.872 C139.500764,19.4 138.316764,18.216 136.844764,18.216 C135.372764,18.216 134.220764,19.4 134.220764,20.872 Z M146.712955,33.16 C146.712955,30.76 147.448955,29.16 149.592955,29.16 C151.416955,29.16 152.184955,30.568 152.184955,32.232 L152.184955,41 L156.760955,41 L156.760955,31.88 C156.760955,27.432 154.200955,24.936 150.360955,24.936 C148.760955,24.936 147.512955,25.576 146.648955,26.408 L146.648955,25.32 L142.168955,25.32 L142.168955,41 L146.712955,41 L146.712955,33.16 Z M170.445146,39.88 L170.445146,39.464 C169.645146,40.168 168.397146,40.648 166.637146,40.648 C162.285146,40.648 158.957146,37.768 158.957146,32.808 C158.957146,27.72 162.605146,24.936 166.637146,24.936 C168.365146,24.936 169.677146,25.64 170.541146,26.44 L170.541146,25.32 L175.021146,25.32 L175.021146,39.368 C175.021146,44.104 171.949146,47.56 166.541146,47.56 C162.509146,47.56 160.429146,45.672 159.405146,44.392 L162.573146,41.352 C163.309146,42.408 164.685146,43.368 166.509146,43.368 C168.909146,43.368 170.445146,41.96 170.445146,39.88 Z M170.541146,32.808 C170.541146,30.536 168.973146,29.064 167.053146,29.064 C165.165146,29.064 163.597146,30.536 163.597146,32.808 C163.597146,35.048 165.165146,36.52 167.053146,36.52 C168.973146,36.52 170.541146,35.048 170.541146,32.808 Z"/>
  </g>
</svg>
