<svg xmlns="http://www.w3.org/2000/svg" width="32" height="32" viewBox="0 0 32 32">
  <path fill="#FFFFFF" d="M30.6666667,0 L1.33333333,0 C0.59696,0 0,0.59696 0,1.33333333 L0,30.6666667 C0,31.40304 0.59696,32 1.33333333,32 L30.6666667,32 C31.40304,32 32,31.40304 32,30.6666667 L32,1.33333333 C32,0.59696 31.40304,0 30.6666667,0 Z M9.49262667,27.2673733 L4.74176,27.2673733 L4.74176,11.9965333 L9.49262667,11.9965333 L9.49262667,27.2673733 Z M7.11849333,9.91013333 C5.59418667,9.91013333 4.36502667,8.67708 4.36502667,7.15756 C4.36502667,5.63845333 5.59418667,4.40538667 7.11849333,4.40538667 C8.63672,4.40538667 9.86933333,5.63846667 9.86933333,7.15756 C9.86933333,8.67708 8.63673333,9.91013333 7.11849333,9.91013333 Z M27.2687067,27.2673733 L22.5230133,27.2673733 L22.5230133,19.8411467 C22.5230133,18.0703067 22.4926133,15.79208 20.05688,15.79208 C17.58728,15.79208 17.21048,17.7222133 17.21048,19.7143867 L17.21048,27.26736 L12.47004,27.26736 L12.47004,11.9965333 L17.0195467,11.9965333 L17.0195467,14.0841733 L17.0846133,14.0841733 C17.7174133,12.88364 19.26604,11.6176 21.5751067,11.6176 C26.3806133,11.6176 27.2687067,14.77956 27.2687067,18.89236 L27.2687067,27.2673733 L27.2687067,27.2673733 Z"/>
</svg>
