<svg xmlns="http://www.w3.org/2000/svg" width="25" height="17" viewBox="0 0 25 17">
  <g fill="#443AFF" transform="translate(.945)">
    <path d="M23,17 L1,17 C0.4,17 0,16.6 0,16 L0,2 C0,1.4 0.4,1 1,1 L23,1 C23.6,1 24,1.4 24,2 L24,16 C24,16.6 23.6,17 23,17 Z M2,15 L22,15 L22,3 L2,3 L2,15 Z"/>
    <path d="M12,10 C11.7,10 11.3,9.8 11.2,9.5 C10.9,9 11,8.4 11.5,8.1 L22.5,1.1 C23,0.8 23.6,0.9 23.9,1.4 C24.2,1.9 24.1,2.5 23.6,2.8 L12.6,9.8 C12.4,9.9 12.2,10 12,10 Z"/>
    <path d="M12,10 C11.8,10 11.6,9.9 11.5,9.8 L0.5,2.8 C0,2.5 -0.1,1.9 0.2,1.5 C0.5,1 1.1,0.9 1.5,1.2 L12.5,8.2 C13,8.5 13.1,9.1 12.8,9.6 C12.7,9.8 12.3,10 12,10 Z"/>
  </g>
</svg>
