<svg xmlns="http://www.w3.org/2000/svg" width="32" height="27" viewBox="0 0 32 27">
  <path fill="#FFFFFF" d="M209.66136,838.446293 C210.193376,838.998951 210.883431,839.697469 211.761882,840.545568 L213.178324,841.747155 C211.40377,842.597148 209.406136,843.077417 207.290847,843.077417 C199.950369,843.077417 194,837.323861 194,830.224752 C194,823.126604 199.950369,817.373034 207.290847,817.373034 C214.629245,817.373034 220.581626,823.125691 220.580665,830.224752 C220.580665,832.642809 219.889786,834.904316 218.68887,836.835405 C217.398048,840.940121 226,843.077417 226,843.077417 C214.319074,843.287006 210.372981,834.815758 210.372981,834.815758 C212.177274,835.634631 213.193434,834.970548 213.757181,834.113519 C214.255817,832.925666 214.536866,831.58282 214.536866,830.160888 C214.536866,825.309688 211.268259,821.377136 207.236863,821.377136 C203.204436,821.377136 199.935781,825.310635 199.935781,830.160888 C199.935781,835.012087 203.204436,838.944693 207.236863,838.944693 C208.086811,838.944693 208.903585,838.767442 209.66136,838.446293 Z" transform="translate(-194 -817)"/>
</svg>
