<svg xmlns="http://www.w3.org/2000/svg" width="32" height="32" viewBox="0 0 32 32">
  <path fill="#FFFFFF" fill-rule="evenodd" d="M16,32 C7.17756,32 0,24.82244 0,16 C0,7.17756 7.17756,0 16,0 C24.82244,0 32,7.17756 32,16 C32,24.82244 24.82244,32 16,32 Z M29.4936133,18.1901733 C29.02608,18.0425733 25.2635333,16.9204267 20.98092,17.60596 C22.76844,22.51796 23.4958667,26.51864 23.6359067,27.3499867 C26.7018667,25.2768533 28.8845067,21.9928133 29.4936133,18.1901733 Z M21.3383867,28.6011733 C21.1351067,27.4021467 20.34164,23.2233733 18.4229333,18.2374133 C18.39288,18.2476533 18.36284,18.2574 18.3327867,18.2678667 C10.6244267,20.9539067 7.85733333,26.29956 7.6114,26.8023333 C9.9286,28.60928 12.8406533,29.6873067 16,29.6873067 C17.89316,29.6873067 19.69752,29.30012 21.3383867,28.6011733 Z M5.84685333,25.1586533 C6.15644,24.62872 9.90716,18.41848 16.95548,16.1402 C17.1336133,16.0826267 17.3132267,16.0285333 17.4940133,15.9776 C17.15096,15.20124 16.77728,14.424 16.3860133,13.65832 C9.56113333,15.7008267 2.93842667,15.6155067 2.34049333,15.60324 C2.33630667,15.742 2.33353333,15.88108 2.33353333,16.0208267 C2.33353333,19.5309467 3.66413333,22.7358133 5.84685333,25.1586533 Z M2.6222,13.2217867 C3.23346667,13.2298533 8.86398667,13.2542933 15.2566667,11.55668 C12.9922267,7.53130667 10.55004,4.147 10.1897467,3.65289333 C6.36633333,5.45629333 3.50841333,8.98096 2.6222,13.2217867 Z M12.7974,2.73428 C13.17516,3.24008 15.6572933,6.62022667 17.8967467,10.7347867 C22.7563867,8.91334667 24.8136,6.1482 25.0594,5.79809333 C22.646,3.65689333 19.4724933,2.35436 16,2.35436 C14.8973333,2.35436 13.8251067,2.48656 12.7974,2.73428 Z M26.5787067,7.37846667 C26.2906,7.7682 24.00048,10.7040267 18.94748,12.7670133 C19.26548,13.4179867 19.57036,14.0800667 19.8541733,14.7465333 C19.9547733,14.9827467 20.0527467,15.2178267 20.1486,15.4518133 C24.6959467,14.8800133 29.2142667,15.7964267 29.66484,15.8917333 C29.6347733,12.6660667 28.4821067,9.70402667 26.5787067,7.37846667 Z"/>
</svg>
