<svg xmlns="http://www.w3.org/2000/svg" width="24" height="20" viewBox="0 0 24 20">
  <g fill="#443AFF">
    <path d="M18,20 L4,20 C1.8,20 0,18.2 0,16 L0,6 C0,3.8 1.8,2 4,2 L15,2 C15.6,2 16,2.4 16,3 C16,3.6 15.6,4 15,4 L4,4 C2.9,4 2,4.9 2,6 L2,16 C2,17.1 2.9,18 4,18 L18,18 C19.1,18 20,17.1 20,16 L20,9 C20,8.4 20.4,8 21,8 C21.6,8 22,8.4 22,9 L22,16 C22,18.2 20.2,20 18,20 Z"/>
    <path d="M15,10 C14.7,10 14.5,9.9 14.3,9.7 C13.9,9.3 13.9,8.7 14.3,8.3 L22.3,0.3 C22.7,-0.1 23.3,-0.1 23.7,0.3 C24.1,0.7 24.1,1.3 23.7,1.7 L15.7,9.7 C15.5,9.9 15.3,10 15,10 Z"/>
    <path d="M23,2 L19,2 C18.4,2 18,1.6 18,1 C18,0.4 18.4,0 19,0 L23,0 C23.6,0 24,0.4 24,1 C24,1.6 23.6,2 23,2 Z"/>
    <path d="M23,6 C22.4,6 22,5.6 22,5 L22,1 C22,0.4 22.4,0 23,0 C23.6,0 24,0.4 24,1 L24,5 C24,5.6 23.6,6 23,6 Z"/>
  </g>
</svg>
